<svg xmlns="http://www.w3.org/2000/svg" xmlns:xlink="http://www.w3.org/1999/xlink" viewBox="0,0,256,256" width="128px" height="128px" fill-rule="nonzero"><g fill="none" fill-rule="nonzero" stroke="none" stroke-width="1" stroke-linecap="butt" stroke-linejoin="miter" stroke-miterlimit="10" stroke-dasharray="" stroke-dashoffset="0" font-family="none" font-weight="none" font-size="none" text-anchor="none" style="mix-blend-mode: normal"><g transform="scale(2,2)"><path d="M64,95v9.5c0,4.1 -3.3,7.5 -7.5,7.5h0.5c-4,0 -6,-2 -9.6,-6.8c-2.1,-2.8 -3.9,-5.2 -5.6,-7.2c-0.9,-1.1 -2,-2.1 -3.1,-3c-1.7,-1.4 -3.6,-2.4 -5.8,-3.1c-1.9,-0.6 -3.9,-0.9 -5.9,-0.9c-0.9,0 -1.8,0.1 -2.6,0.2c-1.9,0.2 -3.7,0.7 -5.2,1.5c-6.6,3 -11.2,9.6 -11.2,17.3c0,3.5 0.9,9.7 2.6,12.5c0.5,0.9 1.5,1.5 2.6,1.5h98.7c1.1,0 2.1,-0.6 2.6,-1.5c1.6,-2.8 2.6,-9 2.6,-12.5c0,-7.7 -4.6,-14.3 -11.2,-17.3c-1.5,-0.8 -3.3,-1.3 -5.2,-1.5c-0.9,-0.1 -1.8,-0.2 -2.7,-0.2c-2,0 -4,0.3 -5.8,0.9c-2.2,0.6 -4.1,1.7 -5.8,3.1c-1.1,0.9 -2.2,1.9 -3.1,3c-1.8,2 -3.5,4.4 -5.6,7.2l-3.6,-0.1c-5.6,0 -10.1,-4.6 -10.1,-10.1z" fill-opacity="0" fill="#ffffff"></path><path d="M111.8,127h-98.6c-2.1,0 -4.1,-1.1 -5.2,-3c-2,-3.5 -3,-10.4 -3,-14c0,-8.6 5,-16.4 12.9,-20c1.9,-0.9 4,-1.5 6.2,-1.8c1.1,-0.2 2.1,-0.2 3,-0.2c2.3,0 4.6,0.4 6.8,1.1c2.4,0.7 4.7,1.9 6.8,3.6c1.3,1 2.5,2.2 3.5,3.4c1.7,1.9 3.4,4.1 5.3,6.7l0.4,0.6c3.5,4.6 4.7,5.5 6.8,5.6c2.4,0 4.4,-2 4.4,-4.5v-9.5c0,-1.7 1.3,-3 3,-3c1.7,0 3,1.3 3,3v9.5c0,5.4 -4.1,9.9 -9.4,10.4c-0.4,0.1 -0.7,0.1 -1.1,0.1v0c-0.1,0 -0.1,0 -0.2,0c-5.1,-0.3 -7.8,-3.4 -11.3,-8l-0.4,-0.6c-1.9,-2.5 -3.5,-4.6 -5,-6.4l-0.1,-0.1c-0.8,-0.9 -1.6,-1.8 -2.6,-2.6c-1.6,-1.3 -3.1,-2.1 -4.8,-2.6c-1.7,-0.5 -3.3,-0.8 -5,-0.8c-0.7,0 -1.4,0.1 -2.2,0.2h-0.1c-1.5,0.2 -2.9,0.6 -4.2,1.2c0,0 -0.1,0 -0.1,0.1c-5.9,2.6 -9.6,8.3 -9.6,14.6c0,3.4 0.9,8.9 2.2,11h98.7c1.2,-2.1 2.2,-7.6 2.2,-11c0,-6.3 -3.7,-12 -9.4,-14.6c0,0 -0.1,0 -0.1,-0.1c-1.3,-0.6 -2.7,-1 -4.2,-1.2h-0.1c-0.9,0 -1.6,-0.1 -2.3,-0.1c-1.7,0 -3.3,0.3 -4.9,0.8c-1.8,0.5 -3.3,1.3 -4.8,2.6c-1,0.8 -1.9,1.7 -2.7,2.6l-0.1,0.1c-1.6,1.8 -3.2,3.9 -5,6.4l-0.5,0.5c-1,1.3 -2.9,1.6 -4.2,0.6c-1.3,-1 -1.6,-2.9 -0.6,-4.2l0.4,-0.6c1.9,-2.6 3.6,-4.8 5.3,-6.7c1,-1.3 2.2,-2.4 3.6,-3.5c2.1,-1.7 4.3,-2.9 6.8,-3.6c2.1,-0.7 4.4,-1 6.7,-1c0.9,0 1.9,0.1 3,0.2c2.2,0.2 4.3,0.8 6.2,1.8c7.8,3.6 12.9,11.4 12.9,20c0,3.6 -0.9,10.5 -3,14c-1.1,1.9 -3.1,3 -5.3,3zM64,88c-0.2,0 -0.4,0 -0.6,-0.1c-0.2,0 -0.4,-0.1 -0.6,-0.2c-0.2,-0.1 -0.3,-0.2 -0.5,-0.3c-0.2,-0.1 -0.3,-0.2 -0.5,-0.4c-0.5,-0.4 -0.8,-1.2 -0.8,-2c0,-0.8 0.3,-1.6 0.9,-2.1c0.1,-0.1 0.3,-0.3 0.5,-0.4c0.2,-0.1 0.3,-0.2 0.5,-0.3c0.2,-0.1 0.4,-0.1 0.6,-0.2c0.4,-0.1 0.8,-0.1 1.2,0c0.2,0 0.4,0.1 0.6,0.2c0.2,0.1 0.4,0.2 0.5,0.3c0.2,0.1 0.3,0.2 0.4,0.4c0.6,0.6 0.9,1.3 0.9,2.1c0,0.8 -0.3,1.6 -0.9,2.1c-0.1,0.1 -0.3,0.3 -0.4,0.4c-0.2,0.1 -0.3,0.2 -0.5,0.3c-0.2,0.1 -0.4,0.1 -0.6,0.2c-0.3,0 -0.5,0 -0.7,0z" fill="#4ea8de"></path><path d="M74.1,68.6c-0.3,0 -0.6,0 -0.9,-0.1c-1.6,-0.5 -2.4,-2.2 -1.9,-3.8l2.1,-6.7c4.6,-14.2 6.5,-34.1 -9.4,-49.9c-15.9,15.8 -14,35.7 -9.4,49.9l1.3,4.1c0.5,1.6 -0.4,3.3 -1.9,3.8c-1.6,0.5 -3.3,-0.4 -3.8,-1.9l-1.3,-4.1c-7.5,-23.3 -2.8,-44 13.1,-58.1c1.1,-1 2.8,-1 4,0c15.9,14.2 20.6,34.8 13.1,58.1l-2.1,6.6c-0.4,1.3 -1.6,2.1 -2.9,2.1z" fill="#5e60ce"></path><path d="M74.1,65.6l2.1,-6.7c6.4,-19.8 4.6,-40 -12.2,-54.9v0v0c-16.8,14.9 -18.6,35.1 -12.3,54.9l1.3,4.1" fill-opacity="0" fill="#ffffff"></path><path d="M64,26c-2.20914,0 -4,1.79086 -4,4c0,2.20914 1.79086,4 4,4c2.20914,0 4,-1.79086 4,-4c0,-2.20914 -1.79086,-4 -4,-4z" fill="#5e60ce"></path><path d="M85,69.8c0,-0.1 0,-0.2 0,-0.3c0,-0.1 0,-0.2 -0.1,-0.3c0,-0.1 -0.1,-0.2 -0.1,-0.3c0,-0.1 -0.1,-0.2 -0.1,-0.3c0,-0.1 -0.1,-0.2 -0.1,-0.3c-0.1,-0.1 -0.1,-0.2 -0.2,-0.2c-0.1,-0.1 -0.1,-0.2 -0.2,-0.2c-0.1,-0.1 -0.1,-0.1 -0.2,-0.2c-0.1,-0.1 -0.1,-0.1 -0.2,-0.2c-0.1,-0.1 -0.2,-0.1 -0.3,-0.2c-0.1,0 -0.1,-0.1 -0.2,-0.1l-5.7,-2.7l1.5,-4.8c7.5,-23.1 2.8,-43.8 -13.1,-57.9c-1.1,-1 -2.9,-1 -4,0c-15.9,14.1 -20.6,34.8 -13.1,58l0.7,2.3l-5.7,5.7c-0.6,0.6 -0.9,1.4 -0.9,2.2v4.9c0,1.5 1,2.8 2.4,3.1c1.9,0.4 3.6,-1.1 3.6,-2.9v-3.8l5.9,-5.9c0.9,-0.8 1.4,-2 1,-3.3l-1.3,-4.1c-4.6,-14.2 -6.5,-34.1 9.4,-49.9c14.9,14.8 14.1,33.2 10.2,47.2v0c-1,3.6 -5,5.4 -8.4,3.8l-0.4,-0.2c-1.3,-0.6 -3,-0.3 -3.8,0.8c-0.5,0.6 -0.6,1.3 -0.6,2c0,0.1 0,0.1 0,0.2v12.9c0,1.5 1,2.8 2.4,3.1c1.9,0.4 3.6,-1.1 3.6,-2.9v-8.7l12,5.6v3c0,1.5 1,2.8 2.4,3.1c1.9,0.4 3.6,-1.1 3.6,-2.9v-5c0,-0.2 0,-0.2 0,-0.3z" fill="#5e60ce"></path></g></g></svg>